<svg version="1.1" xmlns="http://www.w3.org/2000/svg" xmlns:xlink="http://www.w3.org/1999/xlink" x="0px" y="0px"
	 width="378.59px" height="184.6px" viewBox="0 0 378.59 184.6" enable-background="new 0 0 378.59 184.6" xml:space="preserve">
<g>
	<path fill="#C5E8E6" d="M40.6,70.6c-0.134-3.466-1.234-6.065-3.3-7.8c-2.069-1.731-4.435-2.6-7.1-2.6c-3.2,0-5.669,1.034-7.4,3.1
		c-1.734,2.068-2.6,4.434-2.6,7.1c0,1.869,0.466,3.7,1.4,5.5c0.931,1.8,3.332,3.435,7.2,4.9l12,4.8c7.6,2.935,12.831,6.935,15.7,12
		c2.866,5.069,4.3,10.6,4.3,16.6c0,4.269-0.769,8.234-2.3,11.9c-1.534,3.669-3.634,6.9-6.3,9.7c-2.669,2.8-5.869,5-9.6,6.6
		c-3.734,1.601-7.8,2.4-12.2,2.4c-4,0-7.8-0.669-11.4-2c-3.6-1.331-6.769-3.266-9.5-5.8c-2.734-2.531-4.969-5.7-6.7-9.5
		c-1.734-3.8-2.669-8.231-2.8-13.3h19.2c0.4,2.8,1.366,5.4,2.9,7.8c1.531,2.4,4.231,3.6,8.1,3.6c2.931,0,5.565-0.966,7.9-2.9
		c2.332-1.931,3.5-4.631,3.5-8.1c0-2.8-0.734-5.2-2.2-7.2c-1.469-2-4.135-3.731-8-5.2l-9.8-3.6c-6.4-2.4-11.434-5.966-15.1-10.7
		C2.832,83.169,1,77.4,1,70.6c0-4.266,0.8-8.231,2.4-11.9c1.6-3.666,3.766-6.8,6.5-9.4c2.731-2.6,5.9-4.631,9.5-6.1
		C23,41.734,26.866,41,31,41c4.131,0,7.966,0.769,11.5,2.3c3.531,1.534,6.566,3.6,9.1,6.2c2.531,2.6,4.531,5.734,6,9.4
		c1.466,3.669,2.2,7.569,2.2,11.7H40.6z"/>
	<path fill="#C5E8E6" d="M69.998,1.2h20.4v20.4h-20.4V1.2z M69.998,42.2h20.4v101.4h-20.4V42.2z"/>
	<path fill="#C5E8E6" d="M103.196,42.2h20.4v9.2c2.531-2.931,5.131-5.4,7.8-7.4c2.666-2,6.531-3,11.6-3c8.399,0,14.331,3.2,17.8,9.6
		c1.2,2.269,2.065,5.069,2.6,8.4c0.531,3.334,0.801,7.8,0.801,13.4V111c0,7.334-0.2,12.734-0.601,16.2
		c-0.399,3.469-1.269,6.27-2.6,8.4c-1.734,2.669-3.969,4.869-6.7,6.6c-2.734,1.731-6.568,2.601-11.5,2.601c-4,0-7.568-0.9-10.7-2.7
		c-3.134-1.8-5.834-4.365-8.1-7.7h-0.4v50.2h-20.4V42.2z M143.796,75.2c0-4.131-0.8-7.466-2.4-10c-1.6-2.531-4.134-3.8-7.6-3.8
		c-3.069,0-5.534,1.169-7.4,3.5c-1.869,2.334-2.8,5.369-2.8,9.1v39.4c0,3.2,0.966,5.834,2.9,7.9c1.931,2.068,4.365,3.1,7.3,3.1
		c3.865,0,6.5-1.2,7.9-3.6c1.399-2.4,2.1-5.2,2.1-8.4V75.2z"/>
	<path fill="#C5E8E6" d="M244.194,42.2h-20.399v-4.6c0-4.666-1.101-8.7-3.3-12.1c-2.2-3.4-5.9-5.1-11.101-5.1
		c-2.8,0-5.1,0.535-6.899,1.6c-1.801,1.069-3.2,2.435-4.2,4.1c-1,1.669-1.7,3.6-2.101,5.8c-0.399,2.2-0.6,4.5-0.6,6.9
		c0,2.8,0.1,5.168,0.3,7.1c0.2,1.935,0.7,3.6,1.5,5c0.8,1.4,1.966,2.635,3.5,3.7c1.531,1.069,3.632,2.134,6.3,3.2l15.601,6.2
		c4.531,1.734,8.2,3.769,11,6.1c2.8,2.334,4.966,5.069,6.5,8.2c1.531,3.134,2.565,6.734,3.1,10.8c0.531,4.069,0.8,8.7,0.8,13.9
		c0,6-0.6,11.569-1.8,16.7c-1.2,5.134-3.169,9.535-5.899,13.2c-2.734,3.669-6.369,6.569-10.9,8.7c-4.534,2.131-10.068,3.2-16.6,3.2
		c-4.935,0-9.535-0.869-13.801-2.601c-4.269-1.73-7.934-4.1-11-7.1c-3.068-3-5.5-6.565-7.3-10.7c-1.8-4.131-2.7-8.6-2.7-13.4v-7.6
		h20.4v6.4c0,3.734,1.1,7.1,3.3,10.1s5.9,4.5,11.101,4.5c3.465,0,6.165-0.5,8.1-1.5c1.932-1,3.4-2.4,4.4-4.2
		c1-1.8,1.631-4.031,1.899-6.7c0.266-2.666,0.4-5.6,0.4-8.8c0-3.731-0.135-6.8-0.4-9.2c-0.269-2.4-0.834-4.331-1.7-5.8
		c-0.868-1.466-2.068-2.666-3.6-3.6c-1.534-0.931-3.568-1.931-6.1-3l-14.601-6c-8.8-3.6-14.7-8.366-17.7-14.3
		c-3-5.932-4.5-13.366-4.5-22.3c0-5.331,0.731-10.4,2.2-15.2c1.466-4.8,3.632-8.932,6.5-12.4c2.866-3.465,6.5-6.231,10.9-8.3
		c4.399-2.065,9.531-3.1,15.399-3.1c5.066,0,9.7,0.935,13.9,2.8c4.2,1.869,7.8,4.334,10.8,7.4c3,3.069,5.3,6.5,6.9,10.3
		c1.6,3.8,2.399,7.7,2.399,11.7V42.2z"/>
	<path fill="#C5E8E6" d="M268.793,20.4h-23.6V1.2h67.6v19.2h-23.6v123.2h-20.4V20.4z"/>
	<path fill="#C5E8E6" d="M317.789,1.2h20.4v122h40.4v20.4h-60.801V1.2z"/>
</g>
</svg>
